# xmcd
#
# Track frame offsets: 
#        150
#        21699
#        37607
#        48925
#        65617
#        79914
#        94622
#        110029
#        124128
#        149682
#        176389
#        195416
#        211136
#        230456
#
# Disc length: 3413 seconds
#
# Revision: 0
# Processed by: cddbd v1.5.2PL0 Copyright (c) Steve Scherf et al.
# Submitted via: ExactAudioCopy v0.99pb5
#
DISCID=c00d530e
DTITLE=Nazca - Circle Of Fire
DYEAR=2002
DGENRE=Indie
TTITLE0=White Buffalo
TTITLE1=Lake Of The Ozarks
TTITLE2=Amazonas
TTITLE3=Bodense
TTITLE4=Medicine Man
TTITLE5=Patorale
TTITLE6=Inca bridges
TTITLE7=Circle Of Fire
TTITLE8=Pahrump-Big Water
TTITLE9=Fighting Inca
TTITLE10=The Hunt
TTITLE11=Antartic
TTITLE12=Ghost Dance
TTITLE13=Conquistatores
EXTD=
EXTT0=
EXTT1=
EXTT2=
EXTT3=
EXTT4=
EXTT5=
EXTT6=
EXTT7=
EXTT8=
EXTT9=
EXTT10=
EXTT11=
EXTT12=
EXTT13=
PLAYORDER=
